# xmcd
#
# Track frame offsets: 
#        300
#        12420
#        23485
#        35263
#        50746
#        62416
#        74196
#        85463
#        95784
#        112135
#        123735
#        142644
#        154672
#        166292
#        178172
#        189119
#        201202
#        212729
#        225768
#        237588
#        249613
#        264557
#        277495
#        288427
#        301866
#
# Disc length: 4178 seconds
#
# Revision: 4
# Processed by: cddbd v1.5.2PL0 Copyright (c) Steve Scherf et al.
# Submitted via: ExactAudioCopy v1.0b1
#
DISCID=73104e19
DTITLE=Bobby "Blue" Bland - Turn On Your Love Light - The Duke Recordi
DTITLE=ngs (Volume 2) [CD1]
DYEAR=1994
DGENRE=Soul Blues
TTITLE0=How Does A Cheatin' Woman Feel
TTITLE1=St. James Infirmary
TTITLE2=I've Just Got To Forget You
TTITLE3=Jelly Jelly Jelly
TTITLE4=Ain't That Lovin' You
TTITLE5=You're The One (That I Adore)
TTITLE6=Who Will The Next Fool Be
TTITLE7=Blue Moon
TTITLE8=Blues In The Night
TTITLE9=Twistin' Up The Road
TTITLE10=Stormy Monday Blues
TTITLE11=Turn On Your Love Light
TTITLE12=Your Friends
TTITLE13=Yield Not To Temptation
TTITLE14=You're Worth It All
TTITLE15=No Sweeter Girl
TTITLE16=The Feeling Is Gone
TTITLE17=36-22-36
TTITLE18=Call On Me
TTITLE19=That's The Way Love Is
TTITLE20=Ain't It A Good Thing
TTITLE21=Cry Lover Cry
TTITLE22=Honky Tonk
TTITLE23=Queen For A Day
TTITLE24=I Can't Stop Singing
EXTD=MCAD2-10957
EXTT0=
EXTT1=
EXTT2=
EXTT3=
EXTT4=
EXTT5=
EXTT6=
EXTT7=
EXTT8=
EXTT9=
EXTT10=
EXTT11=
EXTT12=
EXTT13=
EXTT14=
EXTT15=
EXTT16=
EXTT17=
EXTT18=
EXTT19=
EXTT20=
EXTT21=
EXTT22=
EXTT23=
EXTT24=
PLAYORDER=
